<svg height="512" viewBox="0 0 128 128" width="512" xmlns="http://www.w3.org/2000/svg"><g><g><path d="m106.312 9.749h-16.437v11h-51.75v-11h-16.438a5 5 0 0 0 -5 5v106.5a5 5 0 0 0 5 5h84.625a5 5 0 0 0 5-5v-106.501a5 5 0 0 0 -5-4.999z" fill="#54528e"/><path d="m43.125 1.747h41.75a5 5 0 0 1 5 5v14.005a0 0 0 0 1 0 0h-51.75a0 0 0 0 1 0 0v-14.005a5 5 0 0 1 5-5z" fill="#fff06d"/><path d="m24.687 20.752h78.625v97.495h-78.625z" fill="#eff4f9"/><path d="m46.125 9.747h35.75v11.005h-35.75z" fill="#f37"/><path d="m32.687 81.4h9.911v10.29h-9.911z" fill="#2fe6a9"/><path d="m32.687 99.957h9.911v10.29h-9.911z" fill="#2fe6a9"/><g fill="#f37"><path d="m68 58.819h-8v-10.561h4a5.568 5.568 0 1 0 -5.568-5.568h-8a13.568 13.568 0 1 1 17.568 12.967z"/><path d="m60 65.63h8v7.284h-8z"/></g><g fill="#d8e5ef"><path d="m95.312 84.375h-44.312a1.75 1.75 0 0 1 0-3.5h44.312a1.75 1.75 0 1 1 0 3.5z"/><path d="m86.375 92.214h-35.375a1.75 1.75 0 0 1 0-3.5h35.375a1.75 1.75 0 0 1 0 3.5z"/><path d="m95.312 102.932h-44.312a1.75 1.75 0 0 1 0-3.5h44.312a1.75 1.75 0 0 1 0 3.5z"/><path d="m86.375 110.771h-35.375a1.75 1.75 0 0 1 0-3.5h35.375a1.75 1.75 0 0 1 0 3.5z"/></g></g><g><path d="m106.312 8h-14.687v-1.253a6.758 6.758 0 0 0 -6.75-6.747h-41.75a6.758 6.758 0 0 0 -6.75 6.75v1.25h-14.688a6.757 6.757 0 0 0 -6.75 6.749v106.5a6.758 6.758 0 0 0 6.75 6.75h84.625a6.758 6.758 0 0 0 6.75-6.75v-106.501a6.757 6.757 0 0 0 -6.75-6.748zm-66.437-1.253a3.254 3.254 0 0 1 3.25-3.25h41.75a3.254 3.254 0 0 1 3.25 3.25v12.253h-4.5v-9.253a1.75 1.75 0 0 0 -1.75-1.747h-35.75a1.75 1.75 0 0 0 -1.75 1.75v9.25h-4.5zm40.25 12.253h-32.25v-7.5h32.25zm29.437 102.245a3.254 3.254 0 0 1 -3.25 3.25h-84.625a3.254 3.254 0 0 1 -3.25-3.25v-106.497a3.254 3.254 0 0 1 3.25-3.25h14.688v7.502h-11.688a1.751 1.751 0 0 0 -1.75 1.75v97.5a1.751 1.751 0 0 0 1.75 1.75h78.625a1.75 1.75 0 0 0 1.75-1.75v-13.226a1.75 1.75 0 0 0 -3.5 0v11.476h-75.125v-94h75.125v54.774a1.75 1.75 0 0 0 3.5 0v-56.522a1.75 1.75 0 0 0 -1.75-1.75h-11.687v-7.502h14.687a3.254 3.254 0 0 1 3.25 3.25z"/><path d="m103.312 88.274a1.751 1.751 0 0 0 -1.75 1.75v2.25a1.75 1.75 0 0 0 3.5 0v-2.25a1.75 1.75 0 0 0 -1.75-1.75z"/><path d="m42.6 79.649h-9.913a1.751 1.751 0 0 0 -1.75 1.75v10.291a1.751 1.751 0 0 0 1.75 1.75h9.913a1.751 1.751 0 0 0 1.75-1.75v-10.29a1.751 1.751 0 0 0 -1.75-1.751zm-1.751 10.291h-6.412v-6.791h6.412z"/><path d="m42.6 98.207h-9.913a1.75 1.75 0 0 0 -1.75 1.75v10.29a1.751 1.751 0 0 0 1.75 1.75h9.913a1.751 1.751 0 0 0 1.75-1.75v-10.29a1.75 1.75 0 0 0 -1.75-1.75zm-1.75 10.29h-6.413v-6.79h6.412z"/><path d="m58.432 44.44a1.751 1.751 0 0 0 1.75-1.75 3.818 3.818 0 1 1 3.818 3.818h-4a1.75 1.75 0 0 0 -1.75 1.75v10.561a1.749 1.749 0 0 0 1.75 1.75h8a1.749 1.749 0 0 0 1.75-1.75v-1.928a15.32 15.32 0 0 0 -5.75-29.519 1.75 1.75 0 0 0 0 3.5 11.819 11.819 0 0 1 3.483 23.113 1.749 1.749 0 0 0 -1.233 1.672v1.412h-4.5v-7.061h2.25a7.318 7.318 0 1 0 -7.106-9.068h-4.584a11.73 11.73 0 0 1 4.573-7.678 1.75 1.75 0 1 0 -2.112-2.791 15.209 15.209 0 0 0 -6.089 12.219 1.75 1.75 0 0 0 1.75 1.75z"/><path d="m68 63.88h-8a1.75 1.75 0 0 0 -1.75 1.75v7.284a1.75 1.75 0 0 0 1.75 1.75h8a1.75 1.75 0 0 0 1.75-1.75v-7.284a1.75 1.75 0 0 0 -1.75-1.75zm-1.75 7.284h-4.5v-3.784h4.5z"/><path d="m95.312 80.875h-44.312a1.75 1.75 0 0 0 0 3.5h44.312a1.75 1.75 0 1 0 0-3.5z"/><path d="m51 92.214h35.375a1.75 1.75 0 0 0 0-3.5h-35.375a1.75 1.75 0 0 0 0 3.5z"/><path d="m95.312 99.432h-44.312a1.75 1.75 0 0 0 0 3.5h44.312a1.75 1.75 0 0 0 0-3.5z"/><path d="m86.375 107.271h-35.375a1.75 1.75 0 0 0 0 3.5h35.375a1.75 1.75 0 0 0 0-3.5z"/></g></g></svg>