<svg id="Capa_1" enable-background="new 0 0 512 512" viewBox="0 0 512 512" xmlns="http://www.w3.org/2000/svg"><g><g><path d="m452 276h-116c-33.084 0-60 26.916-60 60v116c0 33.084 26.916 60 60 60h116c33.084 0 60-26.916 60-60v-116c0-33.084-26.916-60-60-60zm20 176c0 11.028-8.972 20-20 20h-116c-11.028 0-20-8.972-20-20v-116c0-11.028 8.972-20 20-20h116c11.028 0 20 8.972 20 20zm-296-176h-116c-33.084 0-60 26.916-60 60v116c0 33.084 26.916 60 60 60h116c33.084 0 60-26.916 60-60v-116c0-33.084-26.916-60-60-60zm20 176c0 11.028-8.972 20-20 20h-116c-11.028 0-20-8.972-20-20v-116c0-11.028 8.972-20 20-20h116c11.028 0 20 8.972 20 20zm-20-452h-116c-33.084 0-60 26.916-60 60v116c0 33.084 26.916 60 60 60h116c33.084 0 60-26.916 60-60v-116c0-33.084-26.916-60-60-60zm20 176c0 11.028-8.972 20-20 20h-116c-11.028 0-20-8.972-20-20v-116c0-11.028 8.972-20 20-20h116c11.028 0 20 8.972 20 20zm256-176h-116c-33.084 0-60 26.916-60 60v116c0 33.084 26.916 60 60 60h116c33.084 0 60-26.916 60-60v-116c0-33.084-26.916-60-60-60zm20 176c0 11.028-8.972 20-20 20h-116c-11.028 0-20-8.972-20-20v-116c0-11.028 8.972-20 20-20h116c11.028 0 20 8.972 20 20z"/></g></g></svg>